Coordinates
version=1
nRows=8
nColumns=36
inDegrees=yes

Units are S.I. units (second, meters, Newtons, ...)
If the header above contains a line with 'inDegrees', this indicates whether rotational values are in degrees (yes) or radians (no).

endheader
time	pelvis_tilt	pelvis_list	pelvis_rotation	pelvis_tx	pelvis_ty	pelvis_tz	hip_flexion_r	hip_adduction_r	hip_rotation_r	knee_angle_r	knee_angle_r_beta	ankle_angle_r	subtalar_angle_r	mtp_angle_r	hip_flexion_l	hip_adduction_l	hip_rotation_l	knee_angle_l	knee_angle_l_beta	ankle_angle_l	subtalar_angle_l	mtp_angle_l	lumbar_extension	lumbar_bending	lumbar_rotation	arm_flex_r	arm_add_r	arm_rot_r	elbow_flex_r	pro_sup_r	arm_flex_l	arm_add_l	arm_rot_l	elbow_flex_l	pro_sup_l
      0.84745760	     -7.37024673	     -0.44233731	      2.08676757	     -0.24451635	      1.48118712	     -0.04161351	     14.47967046	     -1.09413650	     -3.31162980	     37.98402196	      0.66294625	    -15.62138676	     -7.13932743	     -7.49080794	     17.71686988	     -5.29906331	      3.74683232	     36.23681416	      0.63245172	     -9.16167917	     -8.63823000	     -7.49080794	    -13.23480492	     -3.29757711	     -0.24875246	    107.12741587	    -27.09810273	     32.21144224	    102.50985275	     94.61946309	    107.83646490	    -11.62836421	     38.83934443	     97.79117179	     92.72353834
      0.86440680	     -7.65059303	     -0.80877602	      2.04845017	     -0.23351766	      1.47627690	     -0.04247920	     15.95318711	     -1.23128243	     -3.17537623	     36.65563499	      0.63976152	    -16.32355929	     -7.60962479	     -7.49111849	     18.44486977	     -5.68187726	      3.49067628	     34.31580041	      0.59892370	     -9.28809583	     -7.61447337	     -7.49111849	    -12.47784295	     -2.78991562	      0.46635854	    104.26331101	    -28.03189340	     30.30578018	    102.27526311	     94.57036226	    104.97716651	    -12.52986220	     38.44997511	     98.39829095	     92.74086042
      0.88135590	     -7.75468059	     -1.12015376	      2.03201300	     -0.22539808	      1.47495417	     -0.03758973	     17.90041572	     -1.30530023	     -3.61487060	     35.01306051	      0.61109319	    -16.00342057	     -6.23137942	     -7.49153807	     19.30050372	     -6.31932778	      2.05170930	     32.37745201	      0.56509314	    -11.23008256	     -8.37884455	     -7.49153807	    -12.93095566	     -2.25622685	      0.98465784	    100.87395232	    -28.72080266	     28.21483786	    104.42627380	     95.03748883	    102.24508460	    -14.96029368	     38.21883129	     99.31886095	     93.56992279
      0.89830510	     -7.75831672	     -1.48179517	      1.41517808	     -0.19823458	      1.46336395	     -0.02541953	     19.14053721	     -0.72887524	     -2.70076958	     33.92507364	      0.59210423	    -18.44461789	     -7.10409322	     -7.49175297	     19.99634486	     -7.18261879	      1.46970357	     31.24714075	      0.54536549	    -12.45928160	     -9.35521251	     -7.49175297	    -12.56784904	     -1.99412961	      1.99909399	     96.59271857	    -30.95497306	     29.07613251	    105.71766171	     95.09370452	     98.18942942	    -17.92661443	     37.84667850	    100.83637613	     93.55233262
      0.91525420	     -8.21925217	     -1.40524534	      1.56092926	     -0.17649841	      1.45207428	     -0.02794456	     20.92890230	     -0.78518694	     -1.66863479	     32.67818484	      0.57034192	    -20.78526828	     -7.54362863	     -7.49206617	     21.78316240	     -7.42499345	      2.08977165	     31.79616086	      0.55494770	    -12.76654735	     -8.44582213	     -7.49206617	    -11.51942459	     -2.06123003	      2.38740050	     90.69612461	    -34.43736928	     28.20639308	    109.30909607	     94.94305074	     92.74513373	    -23.01046457	     35.84519061	    106.22718143	     93.36633317
      0.93220340	     -8.56367511	     -0.77313607	      1.94027547	     -0.16034009	      1.43509018	     -0.04005706	     22.41987511	     -2.31066775	     -0.79124631	     31.36851556	      0.54748388	    -20.47032360	     -5.94018453	     -7.49243959	     23.79211105	     -6.30918287	      3.03018982	     32.84296101	      0.57321781	    -11.78411137	     -7.69452043	     -7.49243959	    -10.96553322	     -2.21963338	      1.72819412	     86.74611054	    -35.82498663	     28.11048243	    110.71462674	     94.48094215	     88.11500440	    -25.98885118	     35.44235919	    108.68085665	     92.91870225
      0.94915250	     -8.88256184	     -0.37031813	      1.34021021	     -0.14344626	      1.42279932	     -0.04319840	     23.52401667	     -3.55183381	      0.28292732	     28.47047394	      0.49690351	    -19.58000144	     -2.75373308	     -7.49259055	     24.06147142	     -5.71216873	      3.32520565	     30.21282260	      0.52731323	    -12.38471426	     -5.49095737	     -7.49259055	    -10.86503096	     -1.98166265	      1.47840465	     81.85716113	    -37.56730827	     26.55975343	    112.37799670	     94.65670322	     83.76799490	    -30.53078595	     35.38224216	    110.97109246	     93.19547429
      0.96610170	     -8.97254078	     -0.29063618	      0.44631798	     -0.12205661	      1.41024721	     -0.03340223	     23.42798106	     -3.72772644	      1.39040471	     24.68628610	      0.43085697	    -19.30530346	     -0.25246327	     -7.49313422	     23.65211156	     -5.80199411	      1.85869755	     26.07994901	      0.45518098	    -15.22352976	     -4.83795686	     -7.49313422	    -10.63526425	     -1.42509616	      1.69136562	     78.15767277	    -38.30381388	     27.57570650	    113.13485647	     94.95855664	     77.78303784	    -35.61367370	     33.42636067	    113.60117037	     92.92511909
